<svg xmlns="http://www.w3.org/2000/svg" viewBox="0 0 400 520" preserveAspectRatio="none">
  <path d="M0,0 H400 V450
    C390,450 385,480 380,490 C375,500 370,460 360,455
    C350,450 345,470 340,475 C335,480 330,455 320,450
    C310,445 305,490 300,500 C295,510 290,460 280,455
    C270,450 265,475 260,480 C255,485 250,455 240,450
    C230,445 225,495 220,505 C215,515 210,460 200,455
    C190,450 185,480 180,485 C175,490 170,455 160,450
    C150,445 145,470 140,475 C135,480 130,455 120,450
    C110,445 105,500 100,510 C95,520 90,460 80,455
    C70,450 65,475 60,480 C55,485 50,455 40,450
    C30,445 25,485 20,490 C15,495 10,460 0,455 Z" fill="white"/>
</svg>
